<?xml version="1.0" encoding="utf-8"?>
<!-- Generator: Adobe Illustrator 15.0.0, SVG Export Plug-In . SVG Version: 6.00 Build 0)  -->
<!DOCTYPE svg PUBLIC "-//W3C//DTD SVG 1.1//EN" "http://www.w3.org/Graphics/SVG/1.1/DTD/svg11.dtd">
<svg version="1.1" id="Layer_1" xmlns="http://www.w3.org/2000/svg" xmlns:xlink="http://www.w3.org/1999/xlink" x="0px" y="0px"
	 width="445.5px" height="113.5px" viewBox="0 0 445.5 113.5" enable-background="new 0 0 445.5 113.5" xml:space="preserve">
<g>
</g>
<g>
	<polygon fill="#E52534" points="372.293,44.387 335.861,44.387 327.972,111.095 364.402,111.095 	"/>
	<polygon fill="#E52534" points="441.102,44.387 404.672,44.387 396.781,111.095 433.212,111.095 	"/>
	<path fill="#E52534" d="M329.99,33.025"/>
</g>
<path fill="#E52534" d="M442.445,33.025c1.753-18.471,2.867-31.234-32.779-30.868h-68.809l-3.651,30.868H442.445z"/>
<path fill="#E52534" d="M260.169,69.881h29.46c30.707,0,34.909-4.604,39.018-25.494H227.699l-7.891,66.708h35.485L260.169,69.881z"
	/>
<path fill="#E52534" d="M181.849,69.881H134.05c-11.065,0-20.019-11.402-20.019-25.494h71.752c27.669,0,34.025,5.918,31.71,25.494
	l-1.503,12.701c-4.107,20.89-8.309,28.513-39.016,28.513h-70.833l3.373-28.513h70.833L181.849,69.881z"/>
<polygon fill="#E52534" points="99.269,111.095 2.061,111.095 9.951,44.387 107.159,44.387 104.144,69.881 42.817,69.881 
	41.314,82.582 102.641,82.582 "/>
<polygon fill="#E52534" points="108.502,33.025 112.154,2.158 14.946,2.158 11.294,33.025 "/>
<path fill="#E52534" d="M330.039,33.025h-58.494h-6.911H115.375c3.208-27.122,7.373-30.868,40.127-30.868h141.756
	C324.928,2.158,334.436,9.026,330.039,33.025"/>
</svg>
