<?xml version="1.0" encoding="utf-8"?>
<!-- Generator: Adobe Illustrator 15.0.0, SVG Export Plug-In . SVG Version: 6.00 Build 0)  -->
<!DOCTYPE svg PUBLIC "-//W3C//DTD SVG 1.1//EN" "http://www.w3.org/Graphics/SVG/1.1/DTD/svg11.dtd">
<svg version="1.1" id="Layer_1" xmlns="http://www.w3.org/2000/svg" xmlns:xlink="http://www.w3.org/1999/xlink" x="0px" y="0px"
	 width="470px" height="112px" viewBox="0 0 470 112" enable-background="new 0 0 470 112" xml:space="preserve">
<path fill="#DE3B21" d="M63.776,50.966L97.19,17.552c-1.626-2.809-3.654-5.447-5.905-7.699c-5.961-5.96-13.52-9.977-21.158-9.85
	c-6.918,0.115-13.945,3.819-19.118,8.992L9.037,50.966c-5.849,5.849-9.584,13.089-8.973,20.92c0.528,6.744,4.574,14.101,9.83,19.355
	c5.961,5.961,13.52,9.978,21.158,9.851c6.917-0.113,13.945-3.818,19.117-8.99l8.558-8.559c-2.17-3.748-3.622-7.801-3.924-11.657
	C54.192,64.055,57.928,56.814,63.776,50.966z"/>
<path fill="#DE3B21" d="M118.972,50.966l33.124-33.124c-1.653-2.917-3.744-5.659-6.073-7.989c-5.96-5.96-13.519-9.977-21.157-9.85
	c-6.919,0.115-13.945,3.819-19.118,8.992l-8.558,8.557c2.17,3.749,3.622,7.802,3.923,11.657c0.613,7.831-3.122,15.072-8.971,20.92
	L58.729,83.542c1.626,2.81,3.654,5.447,5.906,7.698c5.961,5.961,13.519,9.978,21.158,9.851c6.917-0.114,13.944-3.819,19.117-8.991
	l8.847-8.848c-2.077-3.666-3.463-7.611-3.757-11.367C109.388,64.055,113.124,56.814,118.972,50.966z"/>
<path opacity="0.51" fill="#757575" enable-background="new    " d="M101.113,29.208c-0.301-3.855-1.753-7.908-3.923-11.657
	L63.776,50.966c-5.848,5.849-9.584,13.089-8.972,20.92c0.302,3.855,1.754,7.909,3.924,11.657l33.414-33.414
	C97.99,44.281,101.726,37.04,101.113,29.208z"/>
<path fill="#FFFFFF" d="M101.113,29.208c-0.301-3.855-1.753-7.908-3.923-11.657L63.776,50.966
	c-5.848,5.849-9.584,13.089-8.972,20.92c0.302,3.855,1.754,7.909,3.924,11.657l33.414-33.414
	C97.99,44.281,101.726,37.04,101.113,29.208z"/>
<path fill="#DE3B21" d="M211.048,29.208c-0.527-6.744-4.573-14.099-9.83-19.355c-5.96-5.96-13.519-9.977-21.158-9.85
	c-6.917,0.115-13.943,3.819-19.117,8.992l-8.848,8.847c2.077,3.667,3.463,7.611,3.757,11.367c0.612,7.831-3.123,15.072-8.971,20.92
	l-33.124,33.124c1.653,2.917,3.744,5.66,6.073,7.988c5.961,5.961,13.519,9.978,21.157,9.851c6.917-0.113,13.944-3.818,19.117-8.99
	l41.972-41.973C207.925,44.281,211.661,37.04,211.048,29.208z"/>
<path opacity="0.51" fill="#757575" enable-background="new    " d="M155.853,29.208c-0.293-3.755-1.68-7.7-3.757-11.367
	l-33.124,33.124c-5.848,5.85-9.584,13.09-8.971,20.92c0.294,3.756,1.68,7.701,3.757,11.367l33.124-33.124
	C152.729,44.281,156.465,37.04,155.853,29.208z"/>
<path fill="#FFFFFF" d="M155.853,29.208c-0.293-3.755-1.68-7.7-3.757-11.367l-33.124,33.124c-5.848,5.85-9.584,13.09-8.971,20.92
	c0.294,3.756,1.68,7.701,3.757,11.367l33.124-33.124C152.729,44.281,156.465,37.04,155.853,29.208z"/>
<g enable-background="new    ">
	<path fill="#FFFFFF" d="M226.765,36.288h7.006l7.767,12.493l7.766-12.493h7.006v29.544h-6.457V46.544l-8.314,12.619h-0.17
		l-8.229-12.492v19.161h-6.373V36.288z"/>
	<path fill="#FFFFFF" d="M263.399,36.288h22.285v5.782h-15.828v5.993h13.928v5.782h-13.928v6.204h16.039v5.782h-22.496V36.288z"/>
	<path fill="#FFFFFF" d="M291.676,36.288h11.521c9.285,0,15.701,6.373,15.701,14.688v0.084c0,8.315-6.416,14.772-15.701,14.772
		h-11.521V36.288z M303.198,59.966c5.318,0,8.906-3.588,8.906-8.821V51.06c0-5.233-3.588-8.905-8.906-8.905h-5.021v17.812H303.198z"
		/>
	<path fill="#FFFFFF" d="M324.975,36.288h6.5v29.544h-6.5V36.288z"/>
	<path fill="#FFFFFF" d="M348.99,36.077h5.993l12.661,29.755h-6.795l-2.701-6.626h-12.492l-2.701,6.626h-6.627L348.99,36.077z
		 M355.828,53.466l-3.926-9.581l-3.926,9.581H355.828z"/>
	<path fill="#FFFFFF" d="M372.202,36.288h12.071c7.048,0,11.311,4.179,11.311,10.214v0.084c0,6.838-5.318,10.383-11.944,10.383
		h-4.938v8.863h-6.499V36.288z M383.852,51.187c3.249,0,5.148-1.941,5.148-4.474v-0.085c0-2.912-2.025-4.474-5.275-4.474h-5.023
		v9.032H383.852z"/>
	<path fill="#FFFFFF" d="M400.396,36.288h13.506c3.757,0,6.669,1.055,8.61,2.996c1.646,1.646,2.531,3.968,2.531,6.753v0.085
		c0,4.77-2.574,7.766-6.33,9.158l7.217,10.552h-7.597l-6.331-9.454h-5.107v9.454h-6.499V36.288z M413.479,50.638
		c3.166,0,4.98-1.688,4.98-4.178v-0.085c0-2.785-1.941-4.221-5.106-4.221h-6.458v8.483H413.479z"/>
	<path fill="#FFFFFF" d="M429.601,51.145V51.06c0-8.398,6.626-15.278,15.743-15.278c9.116,0,15.658,6.795,15.658,15.194v0.084
		c0,8.399-6.627,15.279-15.742,15.279C436.143,66.339,429.601,59.543,429.601,51.145z M454.207,51.145V51.06
		c0-5.064-3.715-9.285-8.947-9.285c-5.234,0-8.863,4.137-8.863,9.201v0.084c0,5.065,3.713,9.286,8.947,9.286
		C450.577,60.346,454.207,56.209,454.207,51.145z"/>
</g>
</svg>
